<?xml version="1.0" encoding="UTF-8"?> 
<svg xmlns="http://www.w3.org/2000/svg" width="250" height="250" viewBox="190 190 220 220" fill="none">
  <g filter="url(#ai-ai-hero__d)">
    <g filter="url(#ai-ai-hero__e)">
      <rect x="200" y="200" width="200" height="200" rx="16" fill="url(#ai-ai-hero__f)"></rect>
    </g>
    <rect x="201" y="201" width="198" height="198" rx="15" stroke="#0057FF" stroke-width="2"></rect>
    <mask id="ai-ai-hero__g" style="mask-type:alpha" maskUnits="userSpaceOnUse" x="202" y="202" width="196" height="196">
      <rect x="203.164" y="203.164" width="193.672" height="193.672" rx="13" fill="#fff" stroke="#0057FF" stroke-width="2"></rect>
    </mask>
    <g mask="url(#ai-ai-hero__g)">
      <path d="M356.522 200h-8.696m8.696 0v8.693m0-8.693h8.695m-17.391 0v8.693m0-8.693h-8.696m17.392 8.693h-8.696m8.696 0v8.694m0-8.694h8.695m-17.391 0v8.694m0-8.694h-8.696m17.392 8.694h-8.696m8.696 0v8.693m0-8.693h8.695m-17.391 0v8.693m0-8.693h-8.696m17.392 8.693h-8.696m8.696 0v8.693m0-8.693h8.695m-17.391 0v8.693m0-8.693h-8.696m17.392 8.693h-8.696m8.696 0v8.693m0-8.693h8.695m-17.391 0v8.693m0-8.693h-8.696m17.392 8.693h-8.696m8.696 0v8.694m0-8.694h8.695m-17.391 0v8.694m0-8.694h-8.696m17.392 8.694h-8.696m8.696 0v8.693m0-8.693h8.695m-17.391 0v8.693m0-8.693h-8.696m17.392 8.693h-8.696m8.696 0v8.693m0-8.693h8.695m-17.391 0v8.693m0-8.693h-8.696m17.392 8.693h-8.696m8.696 0v8.694m0-8.694h8.695m-17.391 0v8.694m0-8.694h-8.696m17.392 8.694h-8.696m8.696 0v8.693m0-8.693h8.695m-17.391 0v8.693m0-8.693h-8.696m17.392 8.693h-8.696m8.696 0v8.693m0-8.693h8.695m-17.391 0v8.693m0-8.693h-8.696m17.392 8.693h-8.696m8.696 0v8.694m0-8.694h8.695m-17.391 0v8.694m0-8.694h-8.696m17.392 8.694h-8.696m8.696 0v8.693m0-8.693h8.695m-17.391 0v8.693m0-8.693h-8.696m17.392 8.693h-8.696m8.696 0v8.693m0-8.693h8.695m-17.391 0v8.693m0-8.693h-8.696m17.392 8.693h-8.696m8.696 0v8.694m0-8.694h8.695m-17.391 0v8.694m0-8.694h-8.696m17.392 8.694h-8.696m8.696 0h8.695m-17.391 0h-8.696m0-104.319v8.693m0-8.693h-8.695m8.695 8.693v8.694m0-8.694h-8.695m8.695 8.694v8.693m0-8.693h-8.695m8.695 8.693v8.693m0-8.693h-8.695m8.695 8.693v8.693m0-8.693h-8.695m8.695 8.693v8.693m0-8.693h-8.695m8.695 8.693v8.694m0-8.694h-8.695m8.695 8.694v8.693m0-8.693h-8.695m8.695 8.693v8.693m0-8.693h-8.695m8.695 8.693v8.693m0-8.693h-8.695m8.695 8.693v8.694m0-8.694h-8.695m8.695 8.694v8.693m0-8.693h-8.695m8.695 8.693h-8.695m0-104.319v8.693m0-8.693h-8.696m8.696 8.693v8.694m0-8.694h-8.696m8.696 8.694v8.693m0-8.693h-8.696m8.696 8.693v8.693m0-8.693h-8.696m8.696 8.693v8.693m0-8.693h-8.696m8.696 8.693v8.693m0-8.693h-8.696m8.696 8.693v8.694m0-8.694h-8.696m8.696 8.694v8.693m0-8.693h-8.696m8.696 8.693v8.693m0-8.693h-8.696m8.696 8.693v8.693m0-8.693h-8.696m8.696 8.693v8.694m0-8.694h-8.696m8.696 8.694v8.693m0-8.693h-8.696m8.696 8.693h-8.696m0-104.319v8.693m0-8.693h-8.695m8.695 8.693v8.694m0-8.694h-8.695m8.695 8.694v8.693m0-8.693h-8.695m8.695 8.693v8.693m0-8.693h-8.695m8.695 8.693v8.693m0-8.693h-8.695m8.695 8.693v8.693m0-8.693h-8.695m8.695 8.693v8.694m0-8.694h-8.695m8.695 8.694v8.693m0-8.693h-8.695m8.695 8.693v8.693m0-8.693h-8.695m8.695 8.693v8.693m0-8.693h-8.695m8.695 8.693v8.694m0-8.694h-8.695m8.695 8.694v8.693m0-8.693h-8.695m8.695 8.693h-8.695m0-104.319v8.693m0-8.693h-8.696m8.696 8.693v8.694m0-8.694h-8.696m8.696 8.694v8.693m0-8.693h-8.696m8.696 8.693v8.693m0-8.693h-8.696m8.696 8.693v8.693m0-8.693h-8.696m8.696 8.693v8.693m0-8.693h-8.696m8.696 8.693v8.694m0-8.694h-8.696m8.696 8.694v8.693m0-8.693h-8.696m8.696 8.693v8.693m0-8.693h-8.696m8.696 8.693v8.693m0-8.693h-8.696m8.696 8.693v8.694m0-8.694h-8.696m8.696 8.694v8.693m0-8.693h-8.696m8.696 8.693h-8.696m0-104.319v8.693m0-8.693h-8.696m8.696 8.693v8.694m0-8.694h-8.696m8.696 8.694v8.693m0-8.693h-8.696m8.696 8.693v8.693m0-8.693h-8.696m8.696 8.693v8.693m0-8.693h-8.696m8.696 8.693v8.693m0-8.693h-8.696m8.696 8.693v8.694m0-8.694h-8.696m8.696 8.694v8.693m0-8.693h-8.696m8.696 8.693v8.693m0-8.693h-8.696m8.696 8.693v8.693m0-8.693h-8.696m8.696 8.693v8.694m0-8.694h-8.696m8.696 8.694v8.693m0-8.693h-8.696m8.696 8.693h-8.696m0-104.319v8.693m0-8.693h-8.696m8.696 8.693v8.694m0-8.694h-8.696m8.696 8.694v8.693m0-8.693h-8.696m8.696 8.693v8.693m0-8.693h-8.696m8.696 8.693v8.693m0-8.693h-8.696m8.696 8.693v8.693m0-8.693h-8.696m8.696 8.693v8.694m0-8.694h-8.696m8.696 8.694v8.693m0-8.693h-8.696m8.696 8.693v8.693m0-8.693h-8.696m8.696 8.693v8.693m0-8.693h-8.696m8.696 8.693v8.694m0-8.694h-8.696m8.696 8.694v8.693m0-8.693h-8.696m8.696 8.693h-8.696m0-104.319v8.693m0-8.693h-8.695m8.695 8.693v8.694m0-8.694h-8.695m8.695 8.694v8.693m0-8.693h-8.695m8.695 8.693v8.693m0-8.693h-8.695m8.695 8.693v8.693m0-8.693h-8.695m8.695 8.693v8.693m0-8.693h-8.695m8.695 8.693v8.694m0-8.694h-8.695m8.695 8.694v8.693m0-8.693h-8.695m8.695 8.693v8.693m0-8.693h-8.695m8.695 8.693v8.693m0-8.693h-8.695m8.695 8.693v8.694m0-8.694h-8.695m8.695 8.694v8.693m0-8.693h-8.695m8.695 8.693h-8.695m0-104.319v8.693m0-8.693h-8.696m8.696 8.693v8.694m0-8.694h-8.696m8.696 8.694v8.693m0-8.693h-8.696m8.696 8.693v8.693m0-8.693h-8.696m8.696 8.693v8.693m0-8.693h-8.696m8.696 8.693v8.693m0-8.693h-8.696m8.696 8.693v8.694m0-8.694h-8.696m8.696 8.694v8.693m0-8.693h-8.696m8.696 8.693v8.693m0-8.693h-8.696m8.696 8.693v8.693m0-8.693h-8.696m8.696 8.693v8.694m0-8.694h-8.696m8.696 8.694v8.693m0-8.693h-8.696m8.696 8.693h-8.696m0-104.319v8.693m0-8.693h-8.695m8.695 8.693v8.694m0-8.694h-8.695m8.695 8.694v8.693m0-8.693h-8.695m8.695 8.693v8.693m0-8.693h-8.695m8.695 8.693v8.693m0-8.693h-8.695m8.695 8.693v8.693m0-8.693h-8.695m8.695 8.693v8.694m0-8.694h-8.695m8.695 8.694v8.693m0-8.693h-8.695m8.695 8.693v8.693m0-8.693h-8.695m8.695 8.693v8.693m0-8.693h-8.695m8.695 8.693v8.694m0-8.694h-8.695m8.695 8.694v8.693m0-8.693h-8.695m8.695 8.693h-8.695m0-104.319v8.693m0-8.693h-8.696m8.696 8.693v8.694m0-8.694h-8.696m8.696 8.694v8.693m0-8.693h-8.696m8.696 8.693v8.693m0-8.693h-8.696m8.696 8.693v8.693m0-8.693h-8.696m8.696 8.693v8.693m0-8.693h-8.696m8.696 8.693v8.694m0-8.694h-8.696m8.696 8.694v8.693m0-8.693h-8.696m8.696 8.693v8.693m0-8.693h-8.696m8.696 8.693v8.693m0-8.693h-8.696m8.696 8.693v8.694m0-8.694h-8.696m8.696 8.694v8.693m0-8.693h-8.696m8.696 8.693h-8.696m0-104.319v8.693m0-8.693h-8.696m8.696 8.693v8.694m0-8.694h-8.696m8.696 8.694v8.693m0-8.693h-8.696m8.696 8.693v8.693m0-8.693h-8.696m8.696 8.693v8.693m0-8.693h-8.696m8.696 8.693v8.693m0-8.693h-8.696m8.696 8.693v8.694m0-8.694h-8.696m8.696 8.694v8.693m0-8.693h-8.696m8.696 8.693v8.693m0-8.693h-8.696m8.696 8.693v8.693m0-8.693h-8.696m8.696 8.693v8.694m0-8.694h-8.696m8.696 8.694v8.693m0-8.693h-8.696m8.696 8.693h-8.696m0-104.319v8.693m0-8.693h-8.695m8.695 8.693v8.694m0-8.694h-8.695m8.695 8.694v8.693m0-8.693h-8.695m8.695 8.693v8.693m0-8.693h-8.695m8.695 8.693v8.693m0-8.693h-8.695m8.695 8.693v8.693m0-8.693h-8.695m8.695 8.693v8.694m0-8.694h-8.695m8.695 8.694v8.693m0-8.693h-8.695m8.695 8.693v8.693m0-8.693h-8.695m8.695 8.693v8.693m0-8.693h-8.695m8.695 8.693v8.694m0-8.694h-8.695m8.695 8.694v8.693m0-8.693h-8.695m8.695 8.693h-8.695m0-104.319v8.693m0-8.693h-8.696m8.696 8.693v8.694m0-8.694h-8.696m8.696 8.694v8.693m0-8.693h-8.696m8.696 8.693v8.693m0-8.693h-8.696m8.696 8.693v8.693m0-8.693h-8.696m8.696 8.693v8.693m0-8.693h-8.696m8.696 8.693v8.694m0-8.694h-8.696m8.696 8.694v8.693m0-8.693h-8.696m8.696 8.693v8.693m0-8.693h-8.696m8.696 8.693v8.693m0-8.693h-8.696m8.696 8.693v8.694m0-8.694h-8.696m8.696 8.694v8.693m0-8.693h-8.696m8.696 8.693h-8.696m0-104.319v8.693m0-8.693h-8.696m8.696 8.693v8.694m0-8.694h-8.696m8.696 8.694v8.693m0-8.693h-8.696m8.696 8.693v8.693m0-8.693h-8.696m8.696 8.693v8.693m0-8.693h-8.696m8.696 8.693v8.693m0-8.693h-8.696m8.696 8.693v8.694m0-8.694h-8.696m8.696 8.694v8.693m0-8.693h-8.696m8.696 8.693v8.693m0-8.693h-8.696m8.696 8.693v8.693m0-8.693h-8.696m8.696 8.693v8.694m0-8.694h-8.696m8.696 8.694v8.693m0-8.693h-8.696m8.696 8.693h-8.696m0-104.319v8.693m0-8.693h-8.695m8.695 8.693v8.694m0-8.694h-8.695m8.695 8.694v8.693m0-8.693h-8.695m8.695 8.693v8.693m0-8.693h-8.695m8.695 8.693v8.693m0-8.693h-8.695m8.695 8.693v8.693m0-8.693h-8.695m8.695 8.693v8.694m0-8.694h-8.695m8.695 8.694v8.693m0-8.693h-8.695m8.695 8.693v8.693m0-8.693h-8.695m8.695 8.693v8.693m0-8.693h-8.695m8.695 8.693v8.694m0-8.694h-8.695m8.695 8.694v8.693m0-8.693h-8.695m8.695 8.693h-8.695m0-104.319v8.693m0-8.693h-8.696m8.696 8.693v8.694m0-8.694h-8.696m8.696 8.694v8.693m0-8.693h-8.696m8.696 8.693v8.693m0-8.693h-8.696m8.696 8.693v8.693m0-8.693h-8.696m8.696 8.693v8.693m0-8.693h-8.696m8.696 8.693v8.694m0-8.694h-8.696m8.696 8.694v8.693m0-8.693h-8.696m8.696 8.693v8.693m0-8.693h-8.696m8.696 8.693v8.693m0-8.693h-8.696m8.696 8.693v8.694m0-8.694h-8.696m8.696 8.694v8.693m0-8.693h-8.696m8.696 8.693h-8.696m0-104.319v8.693m0-8.693h-8.696m8.696 8.693v8.694m0-8.694h-8.696m8.696 8.694v8.693m0-8.693h-8.696m8.696 8.693v8.693m0-8.693h-8.696m8.696 8.693v8.693m0-8.693h-8.696m8.696 8.693v8.693m0-8.693h-8.696m8.696 8.693v8.694m0-8.694h-8.696m8.696 8.694v8.693m0-8.693h-8.696m8.696 8.693v8.693m0-8.693h-8.696m8.696 8.693v8.693m0-8.693h-8.696m8.696 8.693v8.694m0-8.694h-8.696m8.696 8.694v8.693m0-8.693h-8.696m8.696 8.693h-8.696m0-104.319v8.693m0-8.693h-8.695m8.695 8.693v8.694m0-8.694h-8.695m8.695 8.694v8.693m0-8.693h-8.695m8.695 8.693v8.693m0-8.693h-8.695m8.695 8.693v8.693m0-8.693h-8.695m8.695 8.693v8.693m0-8.693h-8.695m8.695 8.693v8.694m0-8.694h-8.695m8.695 8.694v8.693m0-8.693h-8.695m8.695 8.693v8.693m0-8.693h-8.695m8.695 8.693v8.693m0-8.693h-8.695m8.695 8.693v8.694m0-8.694h-8.695m8.695 8.694v8.693m0-8.693h-8.695m8.695 8.693h-8.695m0-104.319v8.693m0-8.693h-8.696m8.696 8.693v8.694m0-8.694h-8.696m8.696 8.694v8.693m0-8.693h-8.696m8.696 8.693v8.693m0-8.693h-8.696m8.696 8.693v8.693m0-8.693h-8.696m8.696 8.693v8.693m0-8.693h-8.696m8.696 8.693v8.694m0-8.694h-8.696m8.696 8.694v8.693m0-8.693h-8.696m8.696 8.693v8.693m0-8.693h-8.696m8.696 8.693v8.693m0-8.693h-8.696m8.696 8.693v8.694m0-8.694h-8.696m8.696 8.694v8.693m0-8.693h-8.696m8.696 8.693h-8.696m0-104.319v8.693m0-8.693H200v8.693m8.696 0v8.694m0-8.694H200m8.696 8.694v8.693m0-8.693H200m8.696 8.693v8.693m0-8.693H200m8.696 8.693v8.693m0-8.693H200m8.696 8.693v8.693m0-8.693H200m8.696 8.693v8.694m0-8.694H200m8.696 8.694v8.693m0-8.693H200m8.696 8.693v8.693m0-8.693H200m8.696 8.693v8.693m0-8.693H200m8.696 8.693v8.694m0-8.694H200m8.696 8.694v8.693m0-8.693H200m8.696 8.693H200v-8.693m0-86.933v8.694m0 0v8.693m0 0v8.693m0 0v8.693m0 0v8.693m0 0v8.694m0 0v8.693m0 0v8.693m0 0v8.693m0 0v8.694m200-86.933V200h-8.696m8.696 8.693v8.694m0-8.694h-8.696m8.696 8.694v8.693m0-8.693h-8.696M400 226.08v8.693m0-8.693h-8.696m8.696 8.693v8.693m0-8.693h-8.696m8.696 8.693v8.693m0-8.693h-8.696m8.696 8.693v8.694m0-8.694h-8.696m8.696 8.694v8.693m0-8.693h-8.696m8.696 8.693v8.693m0-8.693h-8.696m8.696 8.693v8.693m0-8.693h-8.696m8.696 8.693v8.694m0-8.694h-8.696m8.696 8.694v8.693h-8.696m8.696-8.693h-8.696m0-95.626v8.693m0-8.693h-8.695m8.695 8.693v8.694m0-8.694h-8.695m8.695 8.694v8.693m0-8.693h-8.695m8.695 8.693v8.693m0-8.693h-8.695m8.695 8.693v8.693m0-8.693h-8.695m8.695 8.693v8.693m0-8.693h-8.695m8.695 8.693v8.694m0-8.694h-8.695m8.695 8.694v8.693m0-8.693h-8.695m8.695 8.693v8.693m0-8.693h-8.695m8.695 8.693v8.693m0-8.693h-8.695m8.695 8.693v8.694m0-8.694h-8.695m8.695 8.694v8.693m0-8.693h-8.695m8.695 8.693h-8.695m0-104.319v8.693m0-8.693h-8.696m8.696 8.693v8.694m0-8.694h-8.696m8.696 8.694v8.693m0-8.693h-8.696m8.696 8.693v8.693m0-8.693h-8.696m8.696 8.693v8.693m0-8.693h-8.696m8.696 8.693v8.693m0-8.693h-8.696m8.696 8.693v8.694m0-8.694h-8.696m8.696 8.694v8.693m0-8.693h-8.696m8.696 8.693v8.693m0-8.693h-8.696m8.696 8.693v8.693m0-8.693h-8.696m8.696 8.693v8.694m0-8.694h-8.696m8.696 8.694v8.693m0-8.693h-8.696m8.696 8.693h-8.696m0-104.319v8.693m0-8.693h-8.696m8.696 8.693v8.694m0-8.694h-8.696m8.696 8.694v8.693m0-8.693h-8.696m8.696 8.693v8.693m0-8.693h-8.696m8.696 8.693v8.693m0-8.693h-8.696m8.696 8.693v8.693m0-8.693h-8.696m8.696 8.693v8.694m0-8.694h-8.696m8.696 8.694v8.693m0-8.693h-8.696m8.696 8.693v8.693m0-8.693h-8.696m8.696 8.693v8.693m0-8.693h-8.696m8.696 8.693v8.694m0-8.694h-8.696m8.696 8.694v8.693m0-8.693h-8.696m8.696 8.693h-8.696m0-104.319v8.693m0 0v8.694m0 0v8.693m0 0v8.693m0 0v8.693m0 0v8.693m0 0v8.694m0 0v8.693m0 0v8.693m0 0v8.693m0 0v8.694m0 0v8.693m-8.695.055v8.694m0-8.694h-8.696m8.696 0h8.695m-8.695 8.694h-8.696m8.696 0v8.693m0-8.693h8.695m-17.391 0v-8.694m0 8.694v8.693m0-8.693h-8.696m8.696-8.694h-8.696m17.392 17.387h-8.696m8.696 0v8.693m0-8.693h8.695m-17.391 0v8.693m0-8.693h-8.696m17.392 8.693h-8.696m8.696 0v8.693m0-8.693h8.695m-17.391 0v8.693m0-8.693h-8.696m17.392 8.693h-8.696m8.696 0v8.694m0-8.694h8.695m-17.391 0v8.694m0-8.694h-8.696m17.392 8.694h-8.696m8.696 0v8.693m0-8.693h8.695m-17.391 0v8.693m0-8.693h-8.696m17.392 8.693h-8.696m8.696 0v8.693m0-8.693h8.695m-17.391 0v8.693m0-8.693h-8.696m17.392 8.693h-8.696m8.696 0v8.693m0-8.693h8.695m-17.391 0v8.693m0-8.693h-8.696m17.392 8.693h-8.696m8.696 0v8.693m0-8.693h8.695m-17.391 0v8.693m0-8.693h-8.696m17.392 8.693h-8.696m8.696 0v8.694m0-8.694h8.695m-17.391 0v8.694m0-8.694h-8.696m17.392 8.694h-8.696m8.696 0V400m0-8.693h8.695m-17.391 0V400m0-8.693h-8.696M356.522 400h-8.696m8.696 0h8.695m-17.391 0h-8.696m0-86.932v-8.694m0 8.694v8.693m0-8.693h-8.695m8.695-8.694h-8.695m8.695 17.387v8.693m0-8.693h-8.695m8.695 8.693v8.693m0-8.693h-8.695m8.695 8.693v8.694m0-8.694h-8.695m8.695 8.694v8.693m0-8.693h-8.695m8.695 8.693v8.693m0-8.693h-8.695m8.695 8.693v8.693m0-8.693h-8.695m8.695 8.693v8.693m0-8.693h-8.695m8.695 8.694V400m0-8.693h-8.695M339.13 400h-8.695m0-86.932v-8.694m0 8.694v8.693m0-8.693h-8.696m8.696-8.694h-8.696m8.696 17.387v8.693m0-8.693h-8.696m8.696 8.693v8.693m0-8.693h-8.696m8.696 8.693v8.694m0-8.694h-8.696m8.696 8.694v8.693m0-8.693h-8.696m8.696 8.693v8.693m0-8.693h-8.696m8.696 8.693v8.693m0-8.693h-8.696m8.696 8.693v8.693m0-8.693h-8.696m8.696 8.693v8.694m0-8.694h-8.696m8.696 8.694V400m0-8.693h-8.696m8.696 8.693h-8.696m0-86.932v-8.694m0 8.694v8.693m0-8.693h-8.695m8.695-8.694h-8.695m8.695 17.387v8.693m0-8.693h-8.695m8.695 8.693v8.693m0-8.693h-8.695m8.695 8.693v8.694m0-8.694h-8.695m8.695 8.694v8.693m0-8.693h-8.695m8.695 8.693v8.693m0-8.693h-8.695m8.695 8.693v8.693m0-8.693h-8.695m8.695 8.693v8.693m0-8.693h-8.695m8.695 8.694V400m0-8.693h-8.695m8.695 8.693h-8.695m0-86.932v-8.694m0 8.694v8.693m0-8.693h-8.696m8.696-8.694h-8.696m8.696 17.387v8.693m0-8.693h-8.696m8.696 8.693v8.693m0-8.693h-8.696m8.696 8.693v8.694m0-8.694h-8.696m8.696 8.694v8.693m0-8.693h-8.696m8.696 8.693v8.693m0-8.693h-8.696m8.696 8.693v8.693m0-8.693h-8.696m8.696 8.693v8.693m0-8.693h-8.696m8.696 8.694V400m0-8.693h-8.696m8.696 8.693h-8.696m0-86.932v-8.694m0 8.694v8.693m0-8.693h-8.696m8.696-8.694h-8.696m8.696 17.387v8.693m0-8.693h-8.696m8.696 8.693v8.693m0-8.693h-8.696m8.696 8.693v8.694m0-8.694h-8.696m8.696 8.694v8.693m0-8.693h-8.696m8.696 8.693v8.693m0-8.693h-8.696m8.696 8.693v8.693m0-8.693h-8.696m8.696 8.693v8.693m0-8.693h-8.696m8.696 8.694V400m0-8.693h-8.696m8.696 8.693h-8.696m0-86.932v-8.694m0 8.694v8.693m0-8.693h-8.696m8.696-8.694h-8.696m8.696 17.387v8.693m0-8.693h-8.696m8.696 8.693v8.693m0-8.693h-8.696m8.696 8.693v8.694m0-8.694h-8.696m8.696 8.694v8.693m0-8.693h-8.696m8.696 8.693v8.693m0-8.693h-8.696m8.696 8.693v8.693m0-8.693h-8.696m8.696 8.693v8.693m0-8.693h-8.696m8.696 8.694V400m0-8.693h-8.696m8.696 8.693h-8.696m0-86.932v-8.694m0 8.694v8.693m0-8.693h-8.695m8.695-8.694h-8.695m8.695 17.387v8.693m0-8.693h-8.695m8.695 8.693v8.693m0-8.693h-8.695m8.695 8.693v8.694m0-8.694h-8.695m8.695 8.694v8.693m0-8.693h-8.695m8.695 8.693v8.693m0-8.693h-8.695m8.695 8.693v8.693m0-8.693h-8.695m8.695 8.693v8.693m0-8.693h-8.695m8.695 8.694V400m0-8.693h-8.695m8.695 8.693h-8.695m0-86.932v-8.694m0 8.694v8.693m0-8.693h-8.696m8.696-8.694h-8.696m8.696 17.387v8.693m0-8.693h-8.696m8.696 8.693v8.693m0-8.693h-8.696m8.696 8.693v8.694m0-8.694h-8.696m8.696 8.694v8.693m0-8.693h-8.696m8.696 8.693v8.693m0-8.693h-8.696m8.696 8.693v8.693m0-8.693h-8.696m8.696 8.693v8.693m0-8.693h-8.696m8.696 8.694V400m0-8.693h-8.696m8.696 8.693h-8.696m0-86.932v-8.694m0 8.694v8.693m0-8.693h-8.695m8.695-8.694h-8.695m8.695 17.387v8.693m0-8.693h-8.695m8.695 8.693v8.693m0-8.693h-8.695m8.695 8.693v8.694m0-8.694h-8.695m8.695 8.694v8.693m0-8.693h-8.695m8.695 8.693v8.693m0-8.693h-8.695m8.695 8.693v8.693m0-8.693h-8.695m8.695 8.693v8.693m0-8.693h-8.695m8.695 8.694V400m0-8.693h-8.695m8.695 8.693h-8.695m0-86.932v-8.694m0 8.694v8.693m0-8.693h-8.696m8.696-8.694h-8.696m8.696 17.387v8.693m0-8.693h-8.696m8.696 8.693v8.693m0-8.693h-8.696m8.696 8.693v8.694m0-8.694h-8.696m8.696 8.694v8.693m0-8.693h-8.696m8.696 8.693v8.693m0-8.693h-8.696m8.696 8.693v8.693m0-8.693h-8.696m8.696 8.693v8.693m0-8.693h-8.696m8.696 8.693v8.694m0-8.694h-8.696m8.696 8.694V400m0-8.693h-8.696M260.87 400h-8.696m0-86.932v-8.694m0 8.694v8.693m0-8.693h-8.696m8.696-8.694h-8.696m8.696 17.387v8.693m0-8.693h-8.696m8.696 8.693v8.693m0-8.693h-8.696m8.696 8.693v8.694m0-8.694h-8.696m8.696 8.694v8.693m0-8.693h-8.696m8.696 8.693v8.693m0-8.693h-8.696m8.696 8.693v8.693m0-8.693h-8.696m8.696 8.693v8.694m0-8.694h-8.696m8.696 8.694V400m0-8.693h-8.696m8.696 8.693h-8.696m0-86.932v-8.694m0 8.694v8.693m0-8.693h-8.695m8.695-8.694h-8.695m8.695 17.387v8.693m0-8.693h-8.695m8.695 8.693v8.693m0-8.693h-8.695m8.695 8.693v8.694m0-8.694h-8.695m8.695 8.694v8.693m0-8.693h-8.695m8.695 8.693v8.693m0-8.693h-8.695m8.695 8.693v8.693m0-8.693h-8.695m8.695 8.693v8.694m0-8.694h-8.695m8.695 8.694V400m0-8.693h-8.695m8.695 8.693h-8.695m0-86.932v-8.694m0 8.694v8.693m0-8.693h-8.696m8.696-8.694h-8.696m8.696 17.387v8.693m0-8.693h-8.696m8.696 8.693v8.693m0-8.693h-8.696m8.696 8.693v8.694m0-8.694h-8.696m8.696 8.694v8.693m0-8.693h-8.696m8.696 8.693v8.693m0-8.693h-8.696m8.696 8.693v8.693m0-8.693h-8.696m8.696 8.693v8.694m0-8.694h-8.696m8.696 8.694V400m0-8.693h-8.696m8.696 8.693h-8.696m0-86.932v-8.694m0 8.694v8.693m0-8.693h-8.696m8.696-8.694h-8.696m8.696 17.387v8.693m0-8.693h-8.696m8.696 8.693v8.693m0-8.693h-8.696m8.696 8.693v8.694m0-8.694h-8.696m8.696 8.694v8.693m0-8.693h-8.696m8.696 8.693v8.693m0-8.693h-8.696m8.696 8.693v8.693m0-8.693h-8.696m8.696 8.693v8.694m0-8.694h-8.696m8.696 8.694V400m0-8.693h-8.696m8.696 8.693h-8.696m0-86.932v-8.694m0 8.694v8.693m0-8.693h-8.695m8.695-8.694h-8.695m8.695 17.387v8.693m0-8.693h-8.695m8.695 8.693v8.693m0-8.693h-8.695m8.695 8.693v8.694m0-8.694h-8.695m8.695 8.694v8.693m0-8.693h-8.695m8.695 8.693v8.693m0-8.693h-8.695m8.695 8.693v8.693m0-8.693h-8.695m8.695 8.693v8.693m0-8.693h-8.695m8.695 8.694V400m0-8.693h-8.695m8.695 8.693h-8.695m0-86.932v-8.694m0 8.694v8.693m0-8.693H200m8.696-8.694H200v8.694m8.696 8.693v8.693m0-8.693H200m8.696 8.693v8.693m0-8.693H200m8.696 8.693v8.694m0-8.694H200m8.696 8.694v8.693m0-8.693H200m8.696 8.693v8.693m0-8.693H200m8.696 8.693v8.693m0-8.693H200m8.696 8.693v8.693m0-8.693H200m8.696 8.693v8.694m0-8.694H200m8.696 8.694V400m0-8.693H200m8.696 8.693H200v-8.693m0-78.239v8.693m0 0v8.693m0 0v8.693m0 0v8.694m0 0v8.693m0 0v8.693m0 0v8.693m0 0v8.693m0 0v8.694m200-78.239v-8.694h-8.696m8.696 8.694v8.693m0-8.693h-8.696m8.696 8.693v8.693m0-8.693h-8.696m8.696 8.693v8.693m0-8.693h-8.696m8.696 8.693v8.694m0-8.694h-8.696m8.696 8.694v8.693m0-8.693h-8.696m8.696 8.693v8.693m0-8.693h-8.696m8.696 8.693v8.693m0-8.693h-8.696M400 373.92v8.693m0-8.693h-8.696m8.696 8.693v8.694m0-8.694h-8.696m8.696 8.694V400h-8.696m8.696-8.693h-8.696m0-78.239v-8.694m0 8.694v8.693m0-8.693h-8.695m8.695-8.694h-8.695m8.695 17.387v8.693m0-8.693h-8.695m8.695 8.693v8.693m0-8.693h-8.695m8.695 8.693v8.694m0-8.694h-8.695m8.695 8.694v8.693m0-8.693h-8.695m8.695 8.693v8.693m0-8.693h-8.695m8.695 8.693v8.693m0-8.693h-8.695m8.695 8.693v8.694m0-8.694h-8.695m8.695 8.694V400m0-8.693h-8.695m8.695 8.693h-8.695m0-86.932v-8.694m0 8.694v8.693m0-8.693h-8.696m8.696-8.694h-8.696m8.696 17.387v8.693m0-8.693h-8.696m8.696 8.693v8.693m0-8.693h-8.696m8.696 8.693v8.694m0-8.694h-8.696m8.696 8.694v8.693m0-8.693h-8.696m8.696 8.693v8.693m0-8.693h-8.696m8.696 8.693v8.693m0-8.693h-8.696m8.696 8.693v8.693m0-8.693h-8.696m8.696 8.694V400m0-8.693h-8.696m8.696 8.693h-8.696m0-86.932v-8.694m0 8.694v8.693m0-8.693h-8.696m8.696-8.694h-8.696m8.696 17.387v8.693m0-8.693h-8.696m8.696 8.693v8.693m0-8.693h-8.696m8.696 8.693v8.694m0-8.694h-8.696m8.696 8.694v8.693m0-8.693h-8.696m8.696 8.693v8.693m0-8.693h-8.696m8.696 8.693v8.693m0-8.693h-8.696m8.696 8.693v8.693m0-8.693h-8.696m8.696 8.694V400m0-8.693h-8.696m8.696 8.693h-8.696m0-86.932v-8.694m0 8.694v8.693m0 0v8.693m0 0v8.693m0 0v8.694m0 0v8.693m0 0v8.693m0 0v8.693m0 0v8.693m0 0v8.694m0 0V400" stroke="url(#ai-ai-hero__h)" stroke-width=".5" stroke-miterlimit="10"></path>
    </g>
    <path d="m299.748 328.707-16.987-53.648h-6.072l-17.063 53.648h4.766l5.149-16.371h20.292l5.072 16.371h4.843Zm-11.068-20.368h-18.063l8.763-28.361h.538l8.762 28.361Zm35.553-29.898c2.767 0 3.843-1.307 3.843-3.075v-.999c0-1.768-1.076-3.074-3.843-3.074s-3.843 1.306-3.843 3.074v.999c0 1.768 1.076 3.075 3.843 3.075Zm-17.063 50.266h33.204v-3.766h-13.912v-35.894H307.17v3.767h14.911v32.127H307.17v3.766Z" fill="#0057FF"></path>
  </g>
  <defs>
    <radialGradient id="ai-ai-hero__h" cx="0" cy="0" r="1" gradientUnits="userSpaceOnUse" gradientTransform="matrix(136.6845 137.72187 -147.5416 146.43028 300 300)">
      <stop stop-color="#D6E3FC" stop-opacity="0"></stop>
      <stop offset="1" stop-color="#76A5FF"></stop>
    </radialGradient>
    <filter id="ai-ai-hero__d" x="172" y="176" width="248" height="248" filterUnits="userSpaceOnUse" color-interpolation-filters="sRGB">
      <feFlood flood-opacity="0" result="BackgroundImageFix"></feFlood>
      <feColorMatrix in="SourceAlpha" values="0 0 0 0 0 0 0 0 0 0 0 0 0 0 0 0 0 0 127 0" result="hardAlpha"></feColorMatrix>
      <feOffset dx="-4"></feOffset>
      <feGaussianBlur stdDeviation="12"></feGaussianBlur>
      <feComposite in2="hardAlpha" operator="out"></feComposite>
      <feColorMatrix values="0 0 0 0 0 0 0 0 0 0.341176 0 0 0 0 1 0 0 0 0.2 0"></feColorMatrix>
      <feBlend in2="BackgroundImageFix" result="effect1_dropShadow_992_26593"></feBlend>
      <feBlend in="SourceGraphic" in2="effect1_dropShadow_992_26593" result="shape"></feBlend>
    </filter>
    <filter id="ai-ai-hero__e" x="200" y="200" width="204" height="204" filterUnits="userSpaceOnUse" color-interpolation-filters="sRGB">
      <feFlood flood-opacity="0" result="BackgroundImageFix"></feFlood>
      <feBlend in="SourceGraphic" in2="BackgroundImageFix" result="shape"></feBlend>
      <feColorMatrix in="SourceAlpha" values="0 0 0 0 0 0 0 0 0 0 0 0 0 0 0 0 0 0 127 0" result="hardAlpha"></feColorMatrix>
      <feOffset dx="4" dy="4"></feOffset>
      <feGaussianBlur stdDeviation="6.5"></feGaussianBlur>
      <feComposite in2="hardAlpha" operator="arithmetic" k2="-1" k3="1"></feComposite>
      <feColorMatrix values="0 0 0 0 0 0 0 0 0 0.341176 0 0 0 0 1 0 0 0 0.2 0"></feColorMatrix>
      <feBlend in2="shape" result="effect1_innerShadow_992_26593"></feBlend>
    </filter>
    <linearGradient id="ai-ai-hero__f" x1="417.942" y1="436.664" x2="235.722" y2="213.95" gradientUnits="userSpaceOnUse">
      <stop stop-color="#D6E3FC"></stop>
      <stop offset="1" stop-color="#fff"></stop>
    </linearGradient>
  </defs>
</svg>